<svg width="20" height="20" viewBox="0 0 20 20" fill="none" xmlns="http://www.w3.org/2000/svg">
<path fill-rule="evenodd" clip-rule="evenodd" d="M5.29279 7.28966C5.48031 7.10219 5.73462 6.99688 5.99979 6.99688C6.26495 6.99688 6.51926 7.10219 6.70679 7.28966L9.99979 10.5827L13.2928 7.28966C13.385 7.19415 13.4954 7.11797 13.6174 7.06556C13.7394 7.01315 13.8706 6.98557 14.0034 6.98441C14.1362 6.98326 14.2678 7.00856 14.3907 7.05884C14.5136 7.10912 14.6253 7.18338 14.7192 7.27727C14.8131 7.37116 14.8873 7.48281 14.9376 7.60571C14.9879 7.72861 15.0132 7.86029 15.012 7.99306C15.0109 8.12584 14.9833 8.25706 14.9309 8.37907C14.8785 8.50107 14.8023 8.61142 14.7068 8.70366L10.7068 12.7037C10.5193 12.8911 10.265 12.9964 9.99979 12.9964C9.73462 12.9964 9.48031 12.8911 9.29279 12.7037L5.29279 8.70366C5.10532 8.51614 5 8.26183 5 7.99666C5 7.7315 5.10532 7.47719 5.29279 7.28966V7.28966Z" fill="white"/>
</svg>
