<svg width="48" height="35" viewBox="0 0 48 35" fill="none" xmlns="http://www.w3.org/2000/svg">
<path d="M4 0C2.93913 0 1.92172 0.421427 1.17157 1.17157C0.421427 1.92172 0 2.93913 0 4V12C1.06087 12 2.07828 12.4214 2.82843 13.1716C3.57857 13.9217 4 14.9391 4 16C4 17.0609 3.57857 18.0783 2.82843 18.8284C2.07828 19.5786 1.06087 20 0 20V28C0 29.0609 0.421427 30.0783 1.17157 30.8284C1.92172 31.5786 2.93913 32 4 32H12.5C12.5 32 15.5 30 12.5 28C12.5248 27.9447 36 9.08 36 9.08C36 9.08 38 12.5 40 9V4C40 2.93913 39.5786 1.92172 38.8284 1.17157C38.0783 0.421427 37.0609 0 36 0H4ZM4 4H36V9.08L12.5 28H4V22.92C6.48 21.5 8 18.86 8 16C8 13.14 6.48 10.5 4 9.08V4Z" fill="white"/>
<path d="M26.0148 33.5505C25.2312 34.3471 23.9468 34.3471 23.1631 33.5505L13.3796 23.6042C12.614 22.8259 12.614 21.5775 13.3796 20.7992L13.7214 20.4516C14.505 19.655 15.7894 19.655 16.5731 20.4516L24.589 28.6008L43.4269 9.44954C44.2106 8.65288 45.495 8.65288 46.2786 9.44954L46.6204 9.79708C47.386 10.5754 47.386 11.8238 46.6204 12.6021L26.0148 33.5505Z" fill="white"/>
</svg>
