<svg width="20" height="20" viewBox="0 0 20 20" fill="none" xmlns="http://www.w3.org/2000/svg">
<g clip-path="url(#clip0_5029_19440)">
<g filter="url(#filter0_d_5029_19440)">
<path d="M19.1589 7.69997L18.9189 7.45997C19.0741 7.13735 19.1274 6.77507 19.0715 6.42142C19.0156 6.06778 18.8533 5.73956 18.6061 5.48053C18.4377 5.31238 18.2352 5.18224 18.0123 5.09887C17.7894 5.0155 17.5513 4.98083 17.3139 4.9972C17.0907 5.0098 16.8716 5.0619 16.6666 5.15108V1.11108H1.11108V18.8889H16.6666V9.89997L18.3833 8.18331L18.53 8.32942C18.5492 8.34852 18.5645 8.37124 18.5749 8.39627C18.5853 8.4213 18.5907 8.44814 18.5907 8.47525C18.5907 8.50236 18.5853 8.5292 18.5749 8.55423C18.5645 8.57926 18.5492 8.60198 18.53 8.62108L17.2228 9.92886C17.1394 10.0122 17.0925 10.1252 17.0924 10.2431C17.0924 10.361 17.1392 10.4741 17.2225 10.5575C17.3058 10.6409 17.4188 10.6877 17.5367 10.6878C17.6546 10.6879 17.7677 10.6411 17.8511 10.5578L19.1589 9.24997C19.3641 9.04427 19.4794 8.76556 19.4794 8.47497C19.4794 8.18439 19.3641 7.90567 19.1589 7.69997ZM4.44442 4.55553H13.3344V5.44442H4.44442V4.55553ZM4.44442 6.77775H13.3344V7.66664H4.44442V6.77775ZM4.44442 8.99997H10.2778V9.88886H4.44442V8.99997ZM12.6622 16.6089H8.32664C7.82553 16.6089 7.35664 16.5616 7.10775 16.1511C6.85275 15.7316 7.10608 15.2444 7.29108 14.8878C7.32386 14.825 7.25108 14.7472 7.16775 14.8333C6.92331 15.0844 6.53442 15.5366 6.22164 15.9C5.89108 16.2844 5.75997 16.435 5.68997 16.4983C5.61592 16.5843 5.51533 16.6433 5.40407 16.6658C5.29282 16.6883 5.17722 16.6732 5.07553 16.6228C4.98429 16.57 4.91282 16.4888 4.872 16.3916C4.83118 16.2944 4.82325 16.1865 4.84942 16.0844C4.87275 15.9455 5.26942 14.4 5.62886 13.0105C5.15108 13.8589 3.63442 16.3994 3.56331 16.5189C3.51041 16.6075 3.42447 16.6715 3.3244 16.6967C3.22433 16.722 3.11832 16.7065 3.0297 16.6536C2.94107 16.6007 2.87708 16.5148 2.85182 16.4147C2.82655 16.3146 2.84208 16.2086 2.89497 16.12C2.91442 16.0883 4.81442 12.9044 5.05386 12.4422C5.13192 12.2574 5.2772 12.1092 5.46035 12.0274C5.64349 11.9456 5.85085 11.9364 6.04053 12.0016C6.21174 12.0712 6.35021 12.2031 6.42804 12.3708C6.50588 12.5384 6.51729 12.7293 6.45997 12.905C6.25997 13.6761 6.05608 14.4672 5.89886 15.0828C6.15275 14.7894 6.41831 14.4883 6.60997 14.2911C6.75754 14.1138 6.9591 13.9898 7.18383 13.9379C7.40856 13.886 7.6441 13.9092 7.85442 14.0039C7.98529 14.0702 8.09015 14.1785 8.15219 14.3114C8.21423 14.4444 8.22989 14.5943 8.19664 14.7372C8.14339 14.9141 8.07112 15.0847 7.98108 15.2461C7.83275 15.5544 7.90331 15.8305 8.32664 15.8305H12.6616C12.7648 15.8305 12.8637 15.8715 12.9366 15.9444C13.0096 16.0174 13.0505 16.1163 13.0505 16.2194C13.0505 16.3226 13.0096 16.4215 12.9366 16.4944C12.8637 16.5673 12.7648 16.6083 12.6616 16.6083L12.6622 16.6089ZM11.5061 13.8033L10.0594 14.185C10.0384 14.1908 10.0161 14.1909 9.99502 14.1852C9.97391 14.1796 9.95471 14.1684 9.93942 14.1528C9.92371 14.1375 9.91239 14.1183 9.90662 14.0972C9.90085 14.0761 9.90086 14.0539 9.90664 14.0328L10.2755 12.5889L13.9366 8.92775L15.1589 10.15L11.5061 13.8033ZM17.8761 7.43275L15.7872 9.52164L14.565 8.29942L16.6539 6.21053C16.8407 6.0185 17.0921 5.90251 17.3594 5.88497L17.4094 5.88331C17.5143 5.88134 17.6186 5.90032 17.7161 5.93915C17.8136 5.97797 17.9024 6.03586 17.9772 6.10942C18.1378 6.29896 18.2172 6.54414 18.1983 6.79184C18.1793 7.03953 18.0636 7.2698 17.8761 7.43275Z" fill="black"/>
</g>
</g>
<defs>
<filter id="filter0_d_5029_19440" x="1.11108" y="1.11108" width="19.3684" height="18.7778" filterUnits="userSpaceOnUse" color-interpolation-filters="sRGB">
<feFlood flood-opacity="0" result="BackgroundImageFix"/>
<feColorMatrix in="SourceAlpha" type="matrix" values="0 0 0 0 0 0 0 0 0 0 0 0 0 0 0 0 0 0 127 0" result="hardAlpha"/>
<feOffset dx="1" dy="1"/>
<feComposite in2="hardAlpha" operator="out"/>
<feColorMatrix type="matrix" values="0 0 0 0 0.905882 0 0 0 0 0.372549 0 0 0 0 0.2 0 0 0 1 0"/>
<feBlend mode="normal" in2="BackgroundImageFix" result="effect1_dropShadow_5029_19440"/>
<feBlend mode="normal" in="SourceGraphic" in2="effect1_dropShadow_5029_19440" result="shape"/>
</filter>
<clipPath id="clip0_5029_19440">
<rect width="20" height="20" fill="white"/>
</clipPath>
</defs>
</svg>
