<svg class="frame-1000004743-1 frame-16" fill="none" height="64" viewBox="0 0 64 64" width="64" xmlns="http://www.w3.org/2000/svg">
  <ellipse class="ellipse-14" cx="28.7803" cy="41.8801" fill="#011121" rx="16.613" ry="28.1144" transform="rotate(-83.2121 28.7803 41.8801)"></ellipse>
  <ellipse class="ellipse-14" cx="30.5431" cy="36.8427" fill="#595A5C" rx="16.613" ry="28.1144" transform="rotate(-68.027 30.5431 36.8427)"></ellipse>
  <ellipse class="ellipse-14" cx="33.0625" cy="31.805" fill="#747474" rx="16.613" ry="28.1144" transform="rotate(-52.2342 33.0625 31.805)"></ellipse>
  <ellipse class="ellipse-14" cx="36.2803" cy="26.7673" fill="#8F8F8F" rx="16.613" ry="28.1144" transform="rotate(-36.4414 36.2803 26.7673)"></ellipse>
  <ellipse class="ellipse-14" cx="40.1431" cy="21.7299" fill="#AAAAAA" rx="16.613" ry="28.1144" transform="rotate(-20.6486 40.1431 21.7299)"></ellipse>
  <ellipse class="ellipse-14" cx="44.6431" cy="16.6925" fill="#C4C4C4" rx="16.613" ry="28.1144" transform="rotate(-4.85582 44.6431 16.6925)"></ellipse>
  <ellipse class="ellipse-14" cx="49.7431" cy="11.6551" fill="#DFDFDF" rx="16.613" ry="28.1144" transform="rotate(10.9369 49.7431 11.6551)"></ellipse>
  <ellipse class="ellipse-14" cx="55.4431" cy="6.61768" fill="#F8F8F8" rx="16.613" ry="28.1144" transform="rotate(26.7297 55.4431 6.61768)"></ellipse>
  <ellipse class="ellipse-14" cx="61.7431" cy="1.58026" fill="white" rx="16.613" ry="28.1144" transform="rotate(42.5225 61.7431 1.58026)"></ellipse>
  <g class="g" filter="url(#filter0_d_293_10613)">
    <path class="path" d="M38.2405 42.6731H29.0629L27.5443 46.9352H22.6914L30.9777 24.5352H36.3588L44.645 46.9352H39.7591L38.2405 42.6731ZM36.986 39.0839L33.6517 29.7266L30.3174 39.0839H36.986Z" fill="#F46F22"></path>
    <path class="path" d="M52.3641 24.5672V46.9352H47.7423V24.5672H52.3641Z" fill="#F46F22"></path>
  </g>
  <defs class="defs">
    <filter class="filter" color-interpolation-filters="sRGB" filterUnits="userSpaceOnUse" height="30.4004" id="filter0_d_293_10613" width="37.6729" x="18.6914" y="24.5352">
      <feFlood class="fe-flood" flood-opacity="0" result="BackgroundImageFix"></feFlood>
      <feColorMatrix class="fe-color-matrix" in="SourceAlpha" result="hardAlpha" type="matrix" values="0 0 0 0 0 0 0 0 0 0 0 0 0 0 0 0 0 0 127 0"></feColorMatrix>
      <feOffset class="fe-offset" dy="4"></feOffset>
      <feGaussianBlur class="fe-gaussian-blur" stdDeviation="2"></feGaussianBlur>
      <feComposite class="fe-composite" in2="hardAlpha" operator="out"></feComposite>
      <feColorMatrix class="fe-color-matrix" type="matrix" values="0 0 0 0 0 0 0 0 0 0 0 0 0 0 0 0 0 0 0.25 0"></feColorMatrix>
      <feBlend class="fe-blend" in2="BackgroundImageFix" mode="normal" result="effect1_dropShadow_293_10613"></feBlend>
      <feBlend class="fe-blend" in="SourceGraphic" in2="effect1_dropShadow_293_10613" mode="normal" result="shape"></feBlend>
    </filter>
    <linearGradient class="linear-gradient" gradientUnits="userSpaceOnUse" id="paint0_linear_293_10613" x1="21.9644" x2="-5.96285" y1="16.5346" y2="67.4436">
      <stop class="stop" stop-color="white"></stop>
      <stop class="stop" offset="1" stop-color="white" stop-opacity="0"></stop>
    </linearGradient>
  </defs>
</svg>
