<svg width="19" height="20" viewBox="0 0 19 20" fill="none" xmlns="http://www.w3.org/2000/svg">
<rect y="0.5" width="19" height="19" rx="9.5" fill="#2e2c53"/>
<path d="M10.2917 17.9164H7.91667V15.5414H10.2917V17.9164ZM10.2917 13.958H7.91667V13.9525C7.91667 12.6462 7.91667 11.5181 8.44867 10.728C8.86254 10.2035 9.37754 9.76734 9.96312 9.44553C10.2275 9.27611 10.4769 9.1154 10.6867 8.94836C11.1367 8.60004 11.4759 8.12855 11.6631 7.59115C11.8503 7.05375 11.8774 6.47355 11.7412 5.92103C11.5276 5.41037 11.1441 4.9892 10.6556 4.7288C10.1672 4.4684 9.60374 4.38476 9.0607 4.49205C8.51766 4.59933 8.02836 4.89095 7.67562 5.31754C7.32288 5.74414 7.12837 6.2795 7.125 6.83303H4.75C4.75 5.57325 5.25045 4.36507 6.14124 3.47427C7.03204 2.58347 8.24022 2.08303 9.5 2.08303C10.3945 2.08034 11.2719 2.32863 12.0324 2.79969C12.7928 3.27075 13.4059 3.94568 13.8019 4.74778C14.1576 5.56504 14.2769 6.4657 14.1462 7.34738C14.0155 8.22906 13.64 9.05638 13.0625 9.73528C12.7039 10.1327 12.3025 10.4874 11.8639 10.7937C11.4804 11.0583 11.1306 11.3685 10.8221 11.7176C10.386 12.3783 10.1981 13.172 10.2917 13.958Z" fill="white"/>
</svg>
