<svg width="486" height="653" viewBox="0 0 486 653" fill="none" xmlns="http://www.w3.org/2000/svg">
<path fill-rule="evenodd" clip-rule="evenodd" d="M159.5 91.0701V120.298C33.5555 120.298 -53.2745 187.023 -53.2745 336.035C-53.2745 485.047 31.7807 552.333 159.5 551.772V581C-20.7815 581 -167 471.309 -167 336.105C-167 200.901 -20.7815 91.0701 159.5 91.0701ZM159.5 91.0701C339.781 91.0701 486 200.761 486 336.035C486 471.309 339.781 580.93 159.5 580.93V551.702C287.219 551.142 372.889 488.481 372.275 335.965C371.66 183.449 285.444 120.298 159.5 120.228V91V91.0701Z" fill="#595A5C" fill-opacity="0.08"/>
<path d="M305 635.29V653H33.0662V635.29H55.5674C81.7747 635.29 100.768 627.359 112.548 611.632C120.027 601.444 123.865 576.623 123.865 537.511V115.557C123.865 82.531 121.814 60.6504 117.777 50.1203C114.6 42.0518 108.181 35.1458 98.5844 29.4021C84.8852 21.6755 70.4579 17.9148 55.5012 17.9148H33V0H304.934V17.9148H281.969C256.093 17.9148 237.298 25.7781 225.452 41.4364C217.642 51.7614 213.605 76.4454 213.605 115.557V537.511C213.605 570.537 215.657 592.418 219.694 602.88C222.871 610.948 229.422 617.854 239.283 623.598C252.718 631.325 266.88 635.29 281.903 635.29H304.868H305Z" fill="#595A5C" fill-opacity="0.08"/>
</svg>
