<svg width="33" height="33" viewBox="0 0 33 33" fill="none" xmlns="http://www.w3.org/2000/svg">
  <ellipse opacity="0.2" cx="13.25" cy="18" rx="9.75" ry="10" fill="#0F172A" />
  <circle opacity="0.2" cx="19.25" cy="15.75" r="9.75" fill="#0F172A" />
  <path d="M11.2096 8.39453L5.15625 7.32812V15.208C5.15632 15.2937 5.17325 15.3784 5.20608 15.4575C5.23891 15.5365 5.28698 15.6084 5.34757 15.6688C5.40815 15.7293 5.48005 15.7773 5.55917 15.81C5.63828 15.8427 5.72307 15.8594 5.80867 15.8594H16.254C16.3397 15.8596 16.4246 15.8429 16.5038 15.8103C16.5831 15.7776 16.6551 15.7297 16.7158 15.6692C16.7765 15.6087 16.8247 15.5369 16.8576 15.4577C16.8905 15.3786 16.9074 15.2937 16.9075 15.208V12.3047L11.2096 8.39453Z" fill="#185C37" />
  <path d="M11.2096 1.64063H5.80867C5.72307 1.64055 5.63828 1.65734 5.55917 1.69004C5.48005 1.72273 5.40815 1.77069 5.34757 1.83117C5.28698 1.89165 5.23891 1.96347 5.20608 2.04253C5.17325 2.12159 5.15632 2.20635 5.15625 2.29195V5.19531L11.2096 8.75L14.4148 9.81641L16.9075 8.75V5.19531L11.2096 1.64063Z" fill="#21A366" />
  <path d="M5.15625 5.19531H11.2096V8.75H5.15625V5.19531Z" fill="#107C41" />
  <path opacity="0.1" d="M9.48859 4.48438H5.15625V13.3711H9.48859C9.66122 13.3702 9.82656 13.3014 9.94879 13.1795C10.071 13.0576 10.1403 12.8924 10.1416 12.7198V5.1357C10.1403 4.96308 10.071 4.79791 9.94879 4.67599C9.82656 4.55408 9.66122 4.48523 9.48859 4.48438Z" fill="black" />
  <path opacity="0.2" d="M9.13258 4.83984H5.15625V13.7266H9.13258C9.30521 13.7257 9.47055 13.6569 9.59277 13.5349C9.71499 13.413 9.78425 13.2479 9.78555 13.0752V5.49117C9.78425 5.31854 9.71499 5.15338 9.59277 5.03146C9.47055 4.90955 9.30521 4.8407 9.13258 4.83984Z" fill="black" />
  <path opacity="0.2" d="M9.13258 4.83984H5.15625V13.0156H9.13258C9.30521 13.0148 9.47055 12.9459 9.59277 12.824C9.71499 12.7021 9.78425 12.5369 9.78555 12.3643V5.49117C9.78425 5.31854 9.71499 5.15338 9.59277 5.03146C9.47055 4.90955 9.30521 4.8407 9.13258 4.83984Z" fill="black" />
  <path opacity="0.2" d="M8.77656 4.83984H5.15625V13.0156H8.77656C8.94919 13.0148 9.11453 12.9459 9.23675 12.824C9.35898 12.7021 9.42824 12.5369 9.42953 12.3643V5.49117C9.42824 5.31854 9.35898 5.15338 9.23675 5.03146C9.11453 4.90955 8.94919 4.8407 8.77656 4.83984Z" fill="black" />
  <path d="M2.24672 4.83984H8.77531C8.94825 4.8397 9.11417 4.90822 9.23661 5.03035C9.35905 5.15249 9.42799 5.31823 9.42828 5.49117V12.0088C9.42799 12.1818 9.35905 12.3475 9.23661 12.4696C9.11417 12.5918 8.94825 12.6603 8.77531 12.6602H2.24672C2.16107 12.6603 2.07623 12.6436 1.99705 12.6109C1.91787 12.5782 1.8459 12.5303 1.78526 12.4698C1.72462 12.4093 1.67649 12.3375 1.64363 12.2584C1.61077 12.1793 1.59382 12.0945 1.59375 12.0088V5.49117C1.59382 5.40552 1.61077 5.32072 1.64363 5.24163C1.67649 5.16253 1.72462 5.09068 1.78526 5.03019C1.8459 4.96971 1.91787 4.92176 1.99705 4.8891C2.07623 4.85644 2.16107 4.8397 2.24672 4.83984Z" fill="url(#paint0_linear_1215_3401)" />
  <path d="M3.61719 10.8689L4.99039 8.74484L3.73258 6.63281H4.74266L5.42898 7.98523C5.49242 8.1132 5.53836 8.20836 5.55914 8.2718H5.56844C5.61328 8.16898 5.66086 8.07 5.71063 7.9732L6.44453 6.635H7.37422L6.08414 8.735L7.40703 10.8705H6.41773L5.62477 9.38797C5.58795 9.32423 5.55666 9.25745 5.53125 9.18836H5.51813C5.495 9.25567 5.46417 9.32008 5.42625 9.38031L4.60977 10.8689H3.61719Z" fill="white" />
  <path d="M16.2559 1.64063H11.2109V5.19531H16.9088V2.29195C16.9088 2.2063 16.8918 2.1215 16.8589 2.04241C16.8261 1.96331 16.778 1.89146 16.7173 1.83098C16.6567 1.77049 16.5847 1.72254 16.5055 1.68988C16.4264 1.65722 16.3415 1.64048 16.2559 1.64063Z" fill="#33C481" />
  <path d="M11.2109 8.75H16.9088V12.3047H11.2109V8.75Z" fill="#107C41" />
  <path d="M24.8546 24.9609L23.7866 17.1406H23.7067C21.8421 17.1438 20.0546 17.885 18.7349 19.2022C17.4153 20.5195 16.6707 22.3056 16.6641 24.1702V24.25L24.8546 24.9609Z" fill="#ED6C47" />
  <path d="M23.8611 17.1406H23.7812V24.25L27.342 25.6719L30.9032 24.25V24.1702C30.8966 22.3057 30.1521 20.5196 28.8325 19.2024C27.5129 17.8852 25.7256 17.1439 23.8611 17.1406Z" fill="#FF8F6B" />
  <path d="M30.9085 24.25V24.3282C30.9016 26.193 30.1568 27.9793 28.837 29.2968C27.5172 30.6142 25.7296 31.3558 23.8648 31.3594H23.7078C21.8431 31.3555 20.0556 30.6139 18.7359 29.2965C17.4161 27.9791 16.6713 26.1929 16.6641 24.3282V24.25H30.9085Z" fill="#D35230" />
  <path opacity="0.1" d="M24.1426 20.6346V28.2203C24.1416 28.3494 24.1026 28.4753 24.0304 28.5823C23.9582 28.6893 23.8561 28.7726 23.7368 28.8219C23.6589 28.8547 23.5752 28.8716 23.4907 28.8716H18.3452C18.2453 28.7571 18.1503 28.6385 18.0602 28.5162C17.1531 27.3087 16.6631 25.839 16.6641 24.3287V24.1723C16.6623 22.81 17.0611 21.4773 17.8109 20.3398C17.8886 20.2177 17.9718 20.0991 18.0602 19.9844H23.4907C23.663 19.9855 23.8279 20.0543 23.9498 20.176C24.0718 20.2976 24.141 20.4624 24.1426 20.6346Z" fill="black" />
  <path opacity="0.2" d="M23.7866 20.9906V28.5763C23.7865 28.6605 23.7696 28.7438 23.7368 28.8213C23.6875 28.9405 23.6041 29.0425 23.4971 29.1146C23.3901 29.1867 23.2642 29.2256 23.1352 29.2266H18.6695C18.5568 29.1121 18.4487 28.9936 18.3452 28.8711C18.2453 28.7566 18.1503 28.638 18.0602 28.5156C17.1531 27.3081 16.6631 25.8385 16.6641 24.3282V24.1718C16.6625 22.8097 17.0612 21.4771 17.8109 20.3398H23.1347C23.307 20.341 23.472 20.4099 23.594 20.5317C23.716 20.6534 23.7851 20.8183 23.7866 20.9906Z" fill="black" />
  <path opacity="0.2" d="M23.7866 20.9906V27.8654C23.785 28.0376 23.7158 28.2024 23.5938 28.324C23.4718 28.4457 23.3069 28.5145 23.1347 28.5156H18.0602C17.1531 27.3081 16.6631 25.8385 16.6641 24.3282V24.1718C16.6625 22.8097 17.0612 21.4771 17.8109 20.3398H23.1347C23.307 20.341 23.472 20.4099 23.594 20.5317C23.716 20.6534 23.7851 20.8183 23.7866 20.9906Z" fill="black" />
  <path opacity="0.2" d="M23.4306 20.9906V27.8654C23.429 28.0376 23.3597 28.2024 23.2378 28.324C23.1158 28.4457 22.9509 28.5145 22.7787 28.5156H18.0602C17.1531 27.3081 16.6631 25.8385 16.6641 24.3282V24.1718C16.6625 22.8097 17.0612 21.4771 17.8109 20.3398H22.7787C22.951 20.341 23.116 20.4099 23.238 20.5317C23.3599 20.6534 23.4291 20.8183 23.4306 20.9906Z" fill="black" />
  <path d="M16.2467 20.3398H22.7753C22.9483 20.3397 23.1142 20.4082 23.2366 20.5304C23.3591 20.6525 23.428 20.8182 23.4283 20.9912V27.5088C23.428 27.6818 23.3591 27.8475 23.2366 27.9696C23.1142 28.0918 22.9483 28.1603 22.7753 28.1602H16.2467C16.1611 28.1603 16.0762 28.1436 15.997 28.1109C15.9179 28.0782 15.8459 28.0303 15.7853 27.9698C15.7246 27.9093 15.6765 27.8375 15.6436 27.7584C15.6108 27.6793 15.5938 27.5945 15.5938 27.5088V20.9912C15.5938 20.9055 15.6108 20.8207 15.6436 20.7416C15.6765 20.6625 15.7246 20.5907 15.7853 20.5302C15.8459 20.4697 15.9179 20.4218 15.997 20.3891C16.0762 20.3564 16.1611 20.3397 16.2467 20.3398Z" fill="url(#paint1_linear_1215_3401)" />
  <path d="M19.5831 22.0783C20.0081 22.0497 20.4295 22.1729 20.772 22.4261C20.9129 22.5515 21.0233 22.7073 21.095 22.8818C21.1666 23.0562 21.1976 23.2447 21.1855 23.4329C21.1902 23.698 21.1195 23.959 20.9815 24.1854C20.8419 24.4082 20.6407 24.5858 20.4023 24.6967C20.13 24.823 19.8324 24.8855 19.5323 24.8794H18.7048V26.4106H17.8594V22.0783H19.5831ZM18.7043 24.2176H19.4322C19.663 24.2343 19.8919 24.166 20.0759 24.0257C20.1511 23.9539 20.2097 23.8666 20.2475 23.7697C20.2853 23.6729 20.3014 23.5689 20.2946 23.4651C20.2946 22.9879 20.0166 22.7491 19.4606 22.7487H18.7043V24.2176Z" fill="white" />
  <defs>
    <linearGradient id="paint0_linear_1215_3401" x1="2.95766" y1="4.32797" x2="8.06438" y2="13.172" gradientUnits="userSpaceOnUse">
      <stop stop-color="#18884F" />
      <stop offset="0.5" stop-color="#117E43" />
      <stop offset="1" stop-color="#0B6631" />
    </linearGradient>
    <linearGradient id="paint1_linear_1215_3401" x1="16.9577" y1="19.828" x2="22.0644" y2="28.672" gradientUnits="userSpaceOnUse">
      <stop stop-color="#CA4C28" />
      <stop offset="0.5" stop-color="#C5401E" />
      <stop offset="1" stop-color="#B62F14" />
    </linearGradient>
  </defs>
</svg>