<svg width="123" height="38" viewBox="0 0 123 38" fill="none" xmlns="http://www.w3.org/2000/svg">
<path fill-rule="evenodd" clip-rule="evenodd" d="M0 4C0 1.79086 1.79086 0 4 0H34C36.2091 0 38 1.79086 38 4V34C38 36.2091 36.2091 38 34 38H4C1.79086 38 0 36.2091 0 34V4ZM17.0984 20.8695C15.667 19.7148 13.2303 20.2923 11.6776 21.6546C12.3355 21.3232 12.8958 21.2551 13.23 21.5247C13.9739 22.1248 13.0535 23.9764 11.776 26.0814C11.6921 26.2196 11.4984 26.5456 11.245 26.9719C10.4287 28.3456 8.99322 30.7611 8.61863 31.2903L8.6261 31.2963C9.2872 30.5762 12.43 27.6153 13.0058 27.0744C14.8403 25.3523 16.4093 24.0903 17.1532 24.6904C17.5775 25.0326 17.5483 25.8443 17.1582 26.8331C18.5112 24.9438 18.6643 22.1335 17.098 20.87L17.0984 20.8695ZM23.1501 22.7537C26.3857 18.6465 27.732 13.4697 26.8285 8.85946L26.8281 8.85908C22.1318 8.95044 17.3569 11.3606 14.0271 15.3918C16.4898 14.8746 18.7581 15.3377 20.4802 16.7269C22.2024 18.1162 23.1354 20.2364 23.1501 22.7537ZM12.1368 14.1527C16.4692 8.7823 22.7919 6.14087 28.5898 6.67619C30.3388 12.2305 29.095 18.9677 24.7635 24.338C23.9751 25.3153 23.1209 26.2032 22.2147 26.9961C21.007 28.0558 19.7083 28.9504 18.3551 29.6708C21.4373 25.6085 21.7781 20.663 19.0688 18.4775C16.3596 16.2919 11.5993 17.6707 8.28133 21.5411C8.58471 20.4708 8.9846 19.4097 9.47778 18.3714C10.1743 16.9063 11.0604 15.487 12.1368 14.1527Z" fill="url(#paint0_linear_6_25)"/>
<path d="M52.64 10.64H59.38V13.16H52.64V10.64ZM52.88 16.4H60.5V19H49.66V5H60.24V7.6H52.88V16.4ZM61.258 19V4.16H64.378V19H61.258ZM71.0136 19.16C69.7869 19.16 68.7069 18.92 67.7736 18.44C66.8536 17.96 66.1403 17.3067 65.6336 16.48C65.1269 15.64 64.8736 14.6867 64.8736 13.62C64.8736 12.54 65.1203 11.5867 65.6136 10.76C66.1203 9.92 66.8069 9.26667 67.6736 8.8C68.5403 8.32 69.5203 8.08 70.6136 8.08C71.6669 8.08 72.6136 8.30667 73.4536 8.76C74.3069 9.2 74.9803 9.84 75.4736 10.68C75.9669 11.5067 76.2136 12.5 76.2136 13.66C76.2136 13.78 76.2069 13.92 76.1936 14.08C76.1803 14.2267 76.1669 14.3667 76.1536 14.5H67.4136V12.68H74.5136L73.3136 13.22C73.3136 12.66 73.2003 12.1733 72.9736 11.76C72.7469 11.3467 72.4336 11.0267 72.0336 10.8C71.6336 10.56 71.1669 10.44 70.6336 10.44C70.1003 10.44 69.6269 10.56 69.2136 10.8C68.8136 11.0267 68.5003 11.3533 68.2736 11.78C68.0469 12.1933 67.9336 12.6867 67.9336 13.26V13.74C67.9336 14.3267 68.0603 14.8467 68.3136 15.3C68.5803 15.74 68.9469 16.08 69.4136 16.32C69.8936 16.5467 70.4536 16.66 71.0936 16.66C71.6669 16.66 72.1669 16.5733 72.5936 16.4C73.0336 16.2267 73.4336 15.9667 73.7936 15.62L75.4536 17.42C74.9603 17.98 74.3403 18.4133 73.5936 18.72C72.8469 19.0133 71.9869 19.16 71.0136 19.16ZM79.4155 19L74.8955 8.24H78.1155L81.8755 17.5H80.2755L84.1755 8.24H87.1755L82.6355 19H79.4155ZM84.6622 19L90.9022 5H94.1022L100.362 19H96.9622L91.8422 6.64H93.1222L87.9822 19H84.6622ZM87.7822 16L88.6422 13.54H95.8422L96.7222 16H87.7822ZM100.215 19V5H103.455V19H100.215ZM109.357 19.16C108.091 19.16 107.104 18.84 106.397 18.2C105.691 17.5467 105.337 16.58 105.337 15.3V5.86H108.457V15.26C108.457 15.7133 108.577 16.0667 108.817 16.32C109.057 16.56 109.384 16.68 109.797 16.68C110.291 16.68 110.711 16.5467 111.057 16.28L111.897 18.48C111.577 18.7067 111.191 18.88 110.737 19C110.297 19.1067 109.837 19.16 109.357 19.16ZM103.677 10.88V8.48H111.137V10.88H103.677ZM117.057 19.16C115.83 19.16 114.75 18.92 113.817 18.44C112.897 17.96 112.183 17.3067 111.677 16.48C111.17 15.64 110.917 14.6867 110.917 13.62C110.917 12.54 111.163 11.5867 111.657 10.76C112.163 9.92 112.85 9.26667 113.717 8.8C114.583 8.32 115.563 8.08 116.657 8.08C117.71 8.08 118.657 8.30667 119.497 8.76C120.35 9.2 121.023 9.84 121.517 10.68C122.01 11.5067 122.257 12.5 122.257 13.66C122.257 13.78 122.25 13.92 122.237 14.08C122.223 14.2267 122.21 14.3667 122.197 14.5H113.457V12.68H120.557L119.357 13.22C119.357 12.66 119.243 12.1733 119.017 11.76C118.79 11.3467 118.477 11.0267 118.077 10.8C117.677 10.56 117.21 10.44 116.677 10.44C116.143 10.44 115.67 10.56 115.257 10.8C114.857 11.0267 114.543 11.3533 114.317 11.78C114.09 12.1933 113.977 12.6867 113.977 13.26V13.74C113.977 14.3267 114.103 14.8467 114.357 15.3C114.623 15.74 114.99 16.08 115.457 16.32C115.937 16.5467 116.497 16.66 117.137 16.66C117.71 16.66 118.21 16.5733 118.637 16.4C119.077 16.2267 119.477 15.9667 119.837 15.62L121.497 17.42C121.003 17.98 120.383 18.4133 119.637 18.72C118.89 19.0133 118.03 19.16 117.057 19.16Z" fill="black"/>
<path d="M52.68 34.096C52.112 34.096 51.624 33.976 51.216 33.736C50.808 33.496 50.496 33.132 50.28 32.644C50.064 32.148 49.956 31.524 49.956 30.772C49.956 30.012 50.068 29.388 50.292 28.9C50.524 28.412 50.844 28.048 51.252 27.808C51.66 27.568 52.136 27.448 52.68 27.448C53.288 27.448 53.832 27.584 54.312 27.856C54.8 28.128 55.184 28.512 55.464 29.008C55.752 29.504 55.896 30.092 55.896 30.772C55.896 31.444 55.752 32.028 55.464 32.524C55.184 33.02 54.8 33.408 54.312 33.688C53.832 33.96 53.288 34.096 52.68 34.096ZM48.864 34V25.096H50.736V28.852L50.616 30.76L50.652 32.68V34H48.864ZM52.356 32.56C52.668 32.56 52.944 32.488 53.184 32.344C53.432 32.2 53.628 31.996 53.772 31.732C53.924 31.46 54 31.14 54 30.772C54 30.396 53.924 30.076 53.772 29.812C53.628 29.548 53.432 29.344 53.184 29.2C52.944 29.056 52.668 28.984 52.356 28.984C52.044 28.984 51.764 29.056 51.516 29.2C51.268 29.344 51.072 29.548 50.928 29.812C50.784 30.076 50.712 30.396 50.712 30.772C50.712 31.14 50.784 31.46 50.928 31.732C51.072 31.996 51.268 32.2 51.516 32.344C51.764 32.488 52.044 32.56 52.356 32.56ZM56.8294 36.424C56.4934 36.424 56.1614 36.372 55.8334 36.268C55.5054 36.164 55.2374 36.02 55.0294 35.836L55.7134 34.504C55.8574 34.632 56.0214 34.732 56.2054 34.804C56.3974 34.876 56.5854 34.912 56.7694 34.912C57.0334 34.912 57.2414 34.848 57.3934 34.72C57.5534 34.6 57.6974 34.396 57.8254 34.108L58.1614 33.316L58.3054 33.112L60.6214 27.544H62.4214L59.5054 34.396C59.2974 34.916 59.0574 35.324 58.7854 35.62C58.5214 35.916 58.2254 36.124 57.8974 36.244C57.5774 36.364 57.2214 36.424 56.8294 36.424ZM57.9334 34.252L55.0534 27.544H56.9854L59.2174 32.944L57.9334 34.252ZM64.6637 34V27.544H66.5357V34H64.6637ZM65.5997 26.644C65.2557 26.644 64.9757 26.544 64.7597 26.344C64.5437 26.144 64.4357 25.896 64.4357 25.6C64.4357 25.304 64.5437 25.056 64.7597 24.856C64.9757 24.656 65.2557 24.556 65.5997 24.556C65.9437 24.556 66.2237 24.652 66.4397 24.844C66.6557 25.028 66.7637 25.268 66.7637 25.564C66.7637 25.876 66.6557 26.136 66.4397 26.344C66.2317 26.544 65.9517 26.644 65.5997 26.644ZM71.5251 34.144C70.8611 34.144 70.2451 34.036 69.6771 33.82C69.1171 33.604 68.6291 33.3 68.2131 32.908C67.8051 32.516 67.4851 32.056 67.2531 31.528C67.0291 31 66.9171 30.424 66.9171 29.8C66.9171 29.176 67.0291 28.6 67.2531 28.072C67.4851 27.544 67.8091 27.084 68.2251 26.692C68.6411 26.3 69.1291 25.996 69.6891 25.78C70.2491 25.564 70.8571 25.456 71.5131 25.456C72.1771 25.456 72.7851 25.564 73.3371 25.78C73.8971 25.996 74.3811 26.3 74.7891 26.692C75.2051 27.084 75.5291 27.544 75.7611 28.072C75.9931 28.592 76.1091 29.168 76.1091 29.8C76.1091 30.424 75.9931 31.004 75.7611 31.54C75.5291 32.068 75.2051 32.528 74.7891 32.92C74.3811 33.304 73.8971 33.604 73.3371 33.82C72.7851 34.036 72.1811 34.144 71.5251 34.144ZM71.5131 32.488C71.8891 32.488 72.2331 32.424 72.5451 32.296C72.8651 32.168 73.1451 31.984 73.3851 31.744C73.6251 31.504 73.8091 31.22 73.9371 30.892C74.0731 30.564 74.1411 30.2 74.1411 29.8C74.1411 29.4 74.0731 29.036 73.9371 28.708C73.8091 28.38 73.6251 28.096 73.3851 27.856C73.1531 27.616 72.8771 27.432 72.5571 27.304C72.2371 27.176 71.8891 27.112 71.5131 27.112C71.1371 27.112 70.7891 27.176 70.4691 27.304C70.1571 27.432 69.8811 27.616 69.6411 27.856C69.4011 28.096 69.2131 28.38 69.0771 28.708C68.9491 29.036 68.8851 29.4 68.8851 29.8C68.8851 30.192 68.9491 30.556 69.0771 30.892C69.2131 31.22 69.3971 31.504 69.6291 31.744C69.8691 31.984 70.1491 32.168 70.4691 32.296C70.7891 32.424 71.1371 32.488 71.5131 32.488ZM76.6101 34V25.6H80.2461C80.9981 25.6 81.6461 25.724 82.1901 25.972C82.7341 26.212 83.1541 26.56 83.4501 27.016C83.7461 27.472 83.8941 28.016 83.8941 28.648C83.8941 29.272 83.7461 29.812 83.4501 30.268C83.1541 30.724 82.7341 31.076 82.1901 31.324C81.6461 31.564 80.9981 31.684 80.2461 31.684H77.6901L78.5541 30.808V34H76.6101ZM78.5541 31.024L77.6901 30.1H80.1381C80.7381 30.1 81.1861 29.972 81.4821 29.716C81.7781 29.46 81.9261 29.104 81.9261 28.648C81.9261 28.184 81.7781 27.824 81.4821 27.568C81.1861 27.312 80.7381 27.184 80.1381 27.184H77.6901L78.5541 26.26V31.024ZM86.1099 28.984H90.1539V30.496H86.1099V28.984ZM86.2539 32.44H90.8259V34H84.3219V25.6H90.6699V27.16H86.2539V32.44ZM90.3707 34L93.9827 29.02V30.436L90.5267 25.6H92.7347L95.1227 28.972L94.1987 28.984L96.5507 25.6H98.6627L95.2307 30.352V28.96L98.8667 34H96.6227L94.1507 30.436H95.0387L92.6027 34H90.3707Z" fill="black" fill-opacity="0.49"/>
<defs>
<linearGradient id="paint0_linear_6_25" x1="38" y1="19" x2="0" y2="19" gradientUnits="userSpaceOnUse">
<stop stop-color="#FFA800"/>
<stop offset="1" stop-color="#F26F21"/>
</linearGradient>
</defs>
</svg>
