<svg id="icon" width="60" height="54" viewBox="0 0 60 54" fill="none" xmlns="http://www.w3.org/2000/svg">
  <ellipse cx="27.1821" cy="35.6458" rx="14.5364" ry="24.6001" transform="rotate(-83.2121 27.1821 35.6458)" fill="#011121"/>
  <ellipse cx="28.7249" cy="31.238" rx="14.5364" ry="24.6001" transform="rotate(-68.027 28.7249 31.238)" fill="#595A5C"/>
  <ellipse cx="30.9291" cy="26.83" rx="14.5364" ry="24.6001" transform="rotate(-52.2342 30.9291 26.83)" fill="#747474"/>
  <path d="M7.65248 41.7C7.71635 41.8925 7.83654 42.0594 7.99626 42.1776C8.15598 42.2958 8.34727 42.3593 8.54344 42.3593C13.1938 40.6113 17.0893 35.7493 19.107 31.207C20.8595 27.2615 21.94 23.8224 21.94 19.7642H26.2578C26.4423 19.7642 26.6228 19.7079 26.7767 19.6025C26.9307 19.4971 27.0515 19.3471 27.124 19.1711C27.1966 18.9951 27.2177 18.8009 27.1849 18.6125C27.152 18.4242 27.0666 18.25 26.9392 18.1116L19.5322 7.78886C19.4443 7.6933 19.3385 7.61724 19.2214 7.56528C19.1043 7.51332 18.9783 7.48653 18.8509 7.48653C18.7235 7.48653 18.5975 7.51332 18.4804 7.56528C18.3633 7.61724 18.2575 7.6933 18.1696 7.78886L10.7626 18.1116C10.6352 18.25 10.5498 18.4242 10.5169 18.6125C10.4841 18.8009 10.5052 18.9951 10.5778 19.1711C10.6503 19.3471 10.7711 19.4971 10.9251 19.6025C11.0791 19.7079 11.2595 19.7642 11.444 19.7642H15.7271C15.7921 22.3943 15.4728 25.112 14.484 28.4127C13.4952 31.7134 10.7077 38.4386 7.96222 40.6113C7.80759 40.7366 7.69451 40.9089 7.63877 41.1041C7.58303 41.2992 7.58741 41.5076 7.6513 41.7H7.65248Z" fill="url(#paint0_linear_1292_2)"/>
  <g filter="url(#filter0_d_1292_2)">
    <path d="M35.46 36.339H27.4296L26.1008 40.0683H21.8545L29.105 20.4683H33.8134L41.0639 40.0683H36.7887L35.46 36.339ZM34.3623 33.1985L31.4448 25.0108L28.5272 33.1985H34.3623Z" fill="#e75f33"/>
    <path d="M47.8181 20.4964V40.0683H43.774V20.4964H47.8181Z" fill="#e75f33"/>
  </g>
  <defs>
    <filter id="filter0_d_1292_2" x="17.8545" y="20.4683" width="33.9636" height="27.6" filterUnits="userSpaceOnUse" color-interpolation-filters="sRGB">
      <feFlood flood-opacity="0" result="BackgroundImageFix"/>
      <feColorMatrix in="SourceAlpha" type="matrix" values="0 0 0 0 0 0 0 0 0 0 0 0 0 0 0 0 0 0 127 0" result="hardAlpha"/>
      <feOffset dy="4"/>
      <feGaussianBlur stdDeviation="2"/>
      <feComposite in2="hardAlpha" operator="out"/>
      <feColorMatrix type="matrix" values="0 0 0 0 0 0 0 0 0 0 0 0 0 0 0 0 0 0 0.25 0"/>
      <feBlend mode="normal" in2="BackgroundImageFix" result="effect1_dropShadow_1292_2"/>
      <feBlend mode="normal" in="SourceGraphic" in2="effect1_dropShadow_1292_2" result="shape"/>
    </filter>
    <linearGradient id="paint0_linear_1292_2" x1="21.2181" y1="13.4683" x2="-3.21823" y2="58.0138" gradientUnits="userSpaceOnUse">
      <stop stop-color="white"/>
      <stop offset="1" stop-color="white" stop-opacity="0"/>
    </linearGradient>
  </defs>
</svg>