<svg width="18" height="20" viewBox="0 0 18 20" fill="none" xmlns="http://www.w3.org/2000/svg">
<path d="M8.99984 0.398438C7.09028 0.398438 5.25893 1.15701 3.90867 2.50727C2.55841 3.85753 1.79984 5.68888 1.79984 7.59844V11.9016L0.951442 12.75C0.783671 12.9179 0.669423 13.1317 0.623142 13.3644C0.576861 13.5971 0.600624 13.8384 0.691428 14.0576C0.782232 14.2769 0.936 14.4643 1.13329 14.5961C1.33058 14.728 1.56254 14.7984 1.79984 14.7984H16.1998C16.4371 14.7984 16.6691 14.728 16.8664 14.5961C17.0637 14.4643 17.2175 14.2769 17.3083 14.0576C17.3991 13.8384 17.4228 13.5971 17.3765 13.3644C17.3303 13.1317 17.216 12.9179 17.0482 12.75L16.1998 11.9016V7.59844C16.1998 5.68888 15.4413 3.85753 14.091 2.50727C12.7407 1.15701 10.9094 0.398438 8.99984 0.398438V0.398438ZM8.99984 19.5984C8.04506 19.5984 7.12939 19.2192 6.45426 18.544C5.77913 17.8689 5.39984 16.9532 5.39984 15.9984H12.5998C12.5998 16.9532 12.2206 17.8689 11.5454 18.544C10.8703 19.2192 9.95462 19.5984 8.99984 19.5984Z" fill="#2e2c53"/>
</svg>
