<svg width="361" height="29" viewBox="0 0 361 29" fill="none" xmlns="http://www.w3.org/2000/svg">
<rect y="0.5" width="253" height="28" rx="14" fill="#3E3B64"/>
<path d="M18.8011 11.8636C18.7415 11.3598 18.4995 10.9688 18.0753 10.6903C17.651 10.4119 17.1307 10.2727 16.5142 10.2727C16.0634 10.2727 15.669 10.3456 15.331 10.4915C14.9962 10.6373 14.7344 10.8378 14.5455 11.093C14.3598 11.3482 14.267 11.6383 14.267 11.9631C14.267 12.2348 14.3317 12.4685 14.4609 12.6641C14.5935 12.8563 14.7625 13.017 14.968 13.1463C15.1735 13.2723 15.389 13.3767 15.6143 13.4595C15.8397 13.5391 16.0469 13.6037 16.2358 13.6534L17.2699 13.9318C17.535 14.0014 17.83 14.0975 18.1548 14.2202C18.483 14.3428 18.7962 14.5102 19.0945 14.7223C19.3961 14.9311 19.6446 15.1996 19.8402 15.5277C20.0357 15.8558 20.1335 16.2585 20.1335 16.7358C20.1335 17.286 19.9893 17.7831 19.701 18.2273C19.416 18.6714 18.9983 19.0244 18.4482 19.2862C17.9013 19.5481 17.2367 19.679 16.4545 19.679C15.7254 19.679 15.094 19.5613 14.5604 19.326C14.0301 19.0907 13.6125 18.7625 13.3075 18.3416C13.0059 17.9207 12.8352 17.4318 12.7955 16.875H14.0682C14.1013 17.2595 14.2306 17.5777 14.456 17.8295C14.6847 18.0781 14.973 18.2637 15.321 18.3864C15.6723 18.5057 16.0502 18.5653 16.4545 18.5653C16.9252 18.5653 17.3478 18.4891 17.7223 18.3366C18.0968 18.1809 18.3935 17.9654 18.6122 17.6903C18.831 17.4119 18.9403 17.0871 18.9403 16.7159C18.9403 16.3778 18.8459 16.1027 18.657 15.8906C18.468 15.6785 18.2195 15.5062 17.9112 15.3736C17.603 15.241 17.2699 15.125 16.9119 15.0256L15.6591 14.6676C14.8636 14.4389 14.2339 14.1125 13.7699 13.6882C13.3059 13.264 13.0739 12.7088 13.0739 12.0227C13.0739 11.4527 13.228 10.9555 13.5362 10.5312C13.8478 10.1037 14.2654 9.77225 14.7891 9.53693C15.3161 9.2983 15.9044 9.17898 16.554 9.17898C17.2102 9.17898 17.7936 9.29664 18.304 9.53196C18.8144 9.76397 19.2188 10.0821 19.517 10.4865C19.8187 10.8909 19.9777 11.3499 19.9943 11.8636H18.8011ZM25.2033 19.6591C24.4675 19.6591 23.8328 19.4967 23.2992 19.1719C22.7689 18.8438 22.3596 18.3864 22.0712 17.7997C21.7862 17.2098 21.6436 16.5237 21.6436 15.7415C21.6436 14.9593 21.7862 14.2699 22.0712 13.6733C22.3596 13.0734 22.7606 12.6061 23.2743 12.2713C23.7914 11.9332 24.3946 11.7642 25.084 11.7642C25.4817 11.7642 25.8745 11.8305 26.2623 11.9631C26.65 12.0956 27.003 12.3111 27.3212 12.6094C27.6394 12.9044 27.8929 13.2955 28.0819 13.7827C28.2708 14.2699 28.3652 14.8698 28.3652 15.5824V16.0795H22.4789V15.0653H27.1721C27.1721 14.6345 27.0859 14.25 26.9135 13.9119C26.7445 13.5739 26.5025 13.3071 26.1877 13.1115C25.8761 12.916 25.5082 12.8182 25.084 12.8182C24.6167 12.8182 24.2123 12.9342 23.8709 13.1662C23.5328 13.3949 23.2727 13.6932 23.0904 14.0611C22.9081 14.429 22.8169 14.8234 22.8169 15.2443V15.9205C22.8169 16.4972 22.9164 16.986 23.1152 17.3871C23.3174 17.7848 23.5975 18.0881 23.9554 18.2969C24.3134 18.5024 24.7293 18.6051 25.2033 18.6051C25.5115 18.6051 25.79 18.562 26.0385 18.4759C26.2904 18.3864 26.5075 18.2538 26.6898 18.0781C26.8721 17.8991 27.013 17.6771 27.1124 17.4119L28.2459 17.7301C28.1266 18.1146 27.9261 18.4527 27.6444 18.7443C27.3626 19.0327 27.0146 19.258 26.6003 19.4205C26.186 19.5795 25.7203 19.6591 25.2033 19.6591ZM32.3972 19.679C31.9133 19.679 31.4741 19.5878 31.0797 19.4055C30.6853 19.2199 30.3721 18.9531 30.1401 18.6051C29.9081 18.2538 29.7921 17.8295 29.7921 17.3324C29.7921 16.8949 29.8783 16.5402 30.0506 16.2685C30.223 15.9934 30.4533 15.7779 30.7417 15.6222C31.03 15.4664 31.3482 15.3504 31.6962 15.2741C32.0475 15.1946 32.4005 15.1316 32.7551 15.0852C33.2192 15.0256 33.5953 14.9808 33.8837 14.951C34.1754 14.9179 34.3875 14.8632 34.5201 14.7869C34.656 14.7107 34.7239 14.5781 34.7239 14.3892V14.3494C34.7239 13.8589 34.5897 13.4777 34.3212 13.206C34.056 12.9342 33.6534 12.7983 33.1131 12.7983C32.553 12.7983 32.1138 12.9209 31.7956 13.1662C31.4775 13.4115 31.2537 13.6733 31.1245 13.9517L30.0108 13.554C30.2097 13.09 30.4748 12.7287 30.8063 12.4702C31.141 12.2083 31.5056 12.026 31.9 11.9233C32.2978 11.8172 32.6889 11.7642 33.0733 11.7642C33.3186 11.7642 33.6003 11.794 33.9185 11.8537C34.24 11.91 34.5499 12.0277 34.8482 12.2067C35.1498 12.3857 35.4 12.6558 35.5989 13.017C35.7978 13.3783 35.8972 13.8622 35.8972 14.4688V19.5H34.7239V18.4659H34.6642C34.5847 18.6316 34.4521 18.8089 34.2665 18.9979C34.0809 19.1868 33.834 19.3475 33.5257 19.4801C33.2175 19.6127 32.8413 19.679 32.3972 19.679ZM32.5762 18.625C33.0402 18.625 33.4313 18.5339 33.7495 18.3516C34.071 18.1693 34.3129 17.9339 34.4753 17.6456C34.641 17.3572 34.7239 17.054 34.7239 16.7358V15.6619C34.6742 15.7216 34.5648 15.7763 34.3958 15.826C34.2301 15.8724 34.0378 15.9138 33.8191 15.9503C33.6036 15.9834 33.3932 16.0133 33.1877 16.0398C32.9855 16.063 32.8214 16.0829 32.6955 16.0994C32.3906 16.1392 32.1055 16.2038 31.8404 16.2933C31.5785 16.3795 31.3664 16.5104 31.204 16.6861C31.0449 16.8584 30.9654 17.0937 30.9654 17.392C30.9654 17.7997 31.1162 18.108 31.4178 18.3168C31.7227 18.5223 32.1088 18.625 32.5762 18.625ZM38.0387 19.5V11.8636H39.1722V13.017H39.2518C39.391 12.6392 39.6429 12.3326 40.0075 12.0973C40.372 11.862 40.783 11.7443 41.2404 11.7443C41.3266 11.7443 41.4343 11.746 41.5636 11.7493C41.6928 11.7526 41.7906 11.7576 41.8569 11.7642V12.9574C41.8171 12.9474 41.726 12.9325 41.5835 12.9126C41.4442 12.8894 41.2968 12.8778 41.141 12.8778C40.7698 12.8778 40.4383 12.9557 40.1467 13.1115C39.8583 13.264 39.6296 13.4761 39.4606 13.7479C39.2949 14.0163 39.212 14.3229 39.212 14.6676V19.5H38.0387ZM46.1175 19.6591C45.4016 19.6591 44.7852 19.4901 44.2681 19.152C43.7511 18.8139 43.3533 18.3482 43.0749 17.755C42.7965 17.1617 42.6573 16.4839 42.6573 15.7216C42.6573 14.946 42.7998 14.2616 43.0849 13.6683C43.3732 13.0717 43.7743 12.6061 44.288 12.2713C44.805 11.9332 45.4083 11.7642 46.0977 11.7642C46.6346 11.7642 47.1185 11.8636 47.5494 12.0625C47.9802 12.2614 48.3332 12.5398 48.6083 12.8977C48.8834 13.2557 49.0541 13.6733 49.1204 14.1506H47.9471C47.8576 13.8026 47.6587 13.4943 47.3505 13.2259C47.0456 12.9541 46.6346 12.8182 46.1175 12.8182C45.6602 12.8182 45.2591 12.9375 44.9144 13.1761C44.573 13.4115 44.3062 13.7446 44.114 14.1754C43.9251 14.603 43.8306 15.1051 43.8306 15.6818C43.8306 16.2718 43.9234 16.7855 44.109 17.223C44.2979 17.6605 44.5631 18.0002 44.9045 18.2422C45.2492 18.4841 45.6535 18.6051 46.1175 18.6051C46.4225 18.6051 46.6992 18.5521 46.9478 18.446C47.1964 18.34 47.4068 18.1875 47.5792 17.9886C47.7515 17.7898 47.8742 17.5511 47.9471 17.2727H49.1204C49.0541 17.7235 48.89 18.1295 48.6282 18.4908C48.3697 18.8487 48.0266 19.1338 47.5991 19.3459C47.1748 19.5547 46.681 19.6591 46.1175 19.6591ZM52.0089 14.9062V19.5H50.8356V9.31818H52.0089V13.0568H52.1083C52.2873 12.6624 52.5558 12.3492 52.9137 12.1172C53.275 11.8819 53.7556 11.7642 54.3555 11.7642C54.8758 11.7642 55.3316 11.8686 55.7227 12.0774C56.1138 12.2829 56.417 12.5994 56.6325 13.027C56.8512 13.4512 56.9606 13.9915 56.9606 14.6477V19.5H55.7873V14.7273C55.7873 14.1207 55.6299 13.6518 55.315 13.3203C55.0034 12.9856 54.5709 12.8182 54.0174 12.8182C53.6329 12.8182 53.2882 12.8994 52.9833 13.0618C52.6817 13.2242 52.4431 13.4612 52.2674 13.7727C52.0951 14.0843 52.0089 14.4621 52.0089 14.9062ZM68.4537 13.5739L67.3997 13.8722C67.3334 13.6965 67.2356 13.5258 67.1064 13.3601C66.9804 13.1911 66.8081 13.0518 66.5893 12.9425C66.3706 12.8331 66.0905 12.7784 65.7491 12.7784C65.2818 12.7784 64.8923 12.8861 64.5808 13.1016C64.2725 13.3137 64.1184 13.5838 64.1184 13.9119C64.1184 14.2036 64.2245 14.4339 64.4366 14.603C64.6487 14.772 64.9802 14.9129 65.4309 15.0256L66.5645 15.304C67.2472 15.4697 67.756 15.7232 68.0907 16.0646C68.4255 16.4027 68.5929 16.8385 68.5929 17.3722C68.5929 17.8097 68.4669 18.2008 68.215 18.5455C67.9664 18.8902 67.6184 19.1619 67.171 19.3608C66.7235 19.5597 66.2032 19.6591 65.6099 19.6591C64.831 19.6591 64.1864 19.4901 63.676 19.152C63.1655 18.8139 62.8424 18.3201 62.7065 17.6705L63.8201 17.392C63.9262 17.803 64.1267 18.1113 64.4217 18.3168C64.72 18.5223 65.1094 18.625 65.59 18.625C66.1369 18.625 66.5711 18.509 66.8926 18.277C67.2174 18.0417 67.3798 17.7599 67.3798 17.4318C67.3798 17.1667 67.287 16.9446 67.1014 16.7656C66.9158 16.5833 66.6307 16.4474 66.2463 16.358L64.9735 16.0597C64.2742 15.8939 63.7605 15.6371 63.4324 15.2891C63.1075 14.9377 62.9451 14.4986 62.9451 13.9716C62.9451 13.5407 63.0661 13.1596 63.3081 12.8281C63.5533 12.4967 63.8864 12.2365 64.3074 12.0476C64.7316 11.8587 65.2122 11.7642 65.7491 11.7642C66.5048 11.7642 67.0981 11.9299 67.5289 12.2614C67.9631 12.5928 68.2714 13.0303 68.4537 13.5739ZM73.5607 19.6591C72.8249 19.6591 72.1902 19.4967 71.6566 19.1719C71.1263 18.8438 70.717 18.3864 70.4286 17.7997C70.1436 17.2098 70.0011 16.5237 70.0011 15.7415C70.0011 14.9593 70.1436 14.2699 70.4286 13.6733C70.717 13.0734 71.118 12.6061 71.6317 12.2713C72.1488 11.9332 72.752 11.7642 73.4414 11.7642C73.8391 11.7642 74.2319 11.8305 74.6197 11.9631C75.0075 12.0956 75.3604 12.3111 75.6786 12.6094C75.9968 12.9044 76.2504 13.2955 76.4393 13.7827C76.6282 14.2699 76.7227 14.8698 76.7227 15.5824V16.0795H70.8363V15.0653H75.5295C75.5295 14.6345 75.4433 14.25 75.271 13.9119C75.1019 13.5739 74.86 13.3071 74.5451 13.1115C74.2335 12.916 73.8656 12.8182 73.4414 12.8182C72.9741 12.8182 72.5697 12.9342 72.2283 13.1662C71.8903 13.3949 71.6301 13.6932 71.4478 14.0611C71.2655 14.429 71.1744 14.8234 71.1744 15.2443V15.9205C71.1744 16.4972 71.2738 16.986 71.4727 17.3871C71.6748 17.7848 71.9549 18.0881 72.3129 18.2969C72.6708 18.5024 73.0868 18.6051 73.5607 18.6051C73.869 18.6051 74.1474 18.562 74.396 18.4759C74.6478 18.3864 74.8649 18.2538 75.0472 18.0781C75.2295 17.8991 75.3704 17.6771 75.4698 17.4119L76.6033 17.7301C76.484 18.1146 76.2835 18.4527 76.0018 18.7443C75.7201 19.0327 75.372 19.258 74.9577 19.4205C74.5434 19.5795 74.0778 19.6591 73.5607 19.6591ZM83.9165 13.5739L82.8626 13.8722C82.7963 13.6965 82.6985 13.5258 82.5692 13.3601C82.4433 13.1911 82.271 13.0518 82.0522 12.9425C81.8335 12.8331 81.5534 12.7784 81.212 12.7784C80.7447 12.7784 80.3552 12.8861 80.0437 13.1016C79.7354 13.3137 79.5813 13.5838 79.5813 13.9119C79.5813 14.2036 79.6874 14.4339 79.8995 14.603C80.1116 14.772 80.4431 14.9129 80.8938 15.0256L82.0273 15.304C82.7101 15.4697 83.2189 15.7232 83.5536 16.0646C83.8884 16.4027 84.0558 16.8385 84.0558 17.3722C84.0558 17.8097 83.9298 18.2008 83.6779 18.5455C83.4293 18.8902 83.0813 19.1619 82.6339 19.3608C82.1864 19.5597 81.6661 19.6591 81.0728 19.6591C80.2939 19.6591 79.6493 19.4901 79.1388 19.152C78.6284 18.8139 78.3053 18.3201 78.1694 17.6705L79.283 17.392C79.3891 17.803 79.5896 18.1113 79.8846 18.3168C80.1829 18.5223 80.5723 18.625 81.0529 18.625C81.5998 18.625 82.034 18.509 82.3555 18.277C82.6803 18.0417 82.8427 17.7599 82.8427 17.4318C82.8427 17.1667 82.7499 16.9446 82.5643 16.7656C82.3787 16.5833 82.0936 16.4474 81.7092 16.358L80.4364 16.0597C79.7371 15.8939 79.2234 15.6371 78.8952 15.2891C78.5704 14.9377 78.408 14.4986 78.408 13.9716C78.408 13.5407 78.529 13.1596 78.771 12.8281C79.0162 12.4967 79.3493 12.2365 79.7702 12.0476C80.1945 11.8587 80.6751 11.7642 81.212 11.7642C81.9677 11.7642 82.561 11.9299 82.9918 12.2614C83.426 12.5928 83.7343 13.0303 83.9165 13.5739ZM91.231 13.5739L90.177 13.8722C90.1107 13.6965 90.013 13.5258 89.8837 13.3601C89.7578 13.1911 89.5854 13.0518 89.3667 12.9425C89.1479 12.8331 88.8678 12.7784 88.5265 12.7784C88.0591 12.7784 87.6697 12.8861 87.3581 13.1016C87.0499 13.3137 86.8958 13.5838 86.8958 13.9119C86.8958 14.2036 87.0018 14.4339 87.214 14.603C87.4261 14.772 87.7575 14.9129 88.2083 15.0256L89.3418 15.304C90.0246 15.4697 90.5333 15.7232 90.8681 16.0646C91.2028 16.4027 91.3702 16.8385 91.3702 17.3722C91.3702 17.8097 91.2443 18.2008 90.9924 18.5455C90.7438 18.8902 90.3958 19.1619 89.9483 19.3608C89.5009 19.5597 88.9805 19.6591 88.3873 19.6591C87.6084 19.6591 86.9637 19.4901 86.4533 19.152C85.9429 18.8139 85.6197 18.3201 85.4838 17.6705L86.5975 17.392C86.7035 17.803 86.9041 18.1113 87.199 18.3168C87.4973 18.5223 87.8868 18.625 88.3674 18.625C88.9142 18.625 89.3484 18.509 89.6699 18.277C89.9947 18.0417 90.1571 17.7599 90.1571 17.4318C90.1571 17.1667 90.0643 16.9446 89.8787 16.7656C89.6931 16.5833 89.4081 16.4474 89.0236 16.358L87.7509 16.0597C87.0516 15.8939 86.5378 15.6371 86.2097 15.2891C85.8849 14.9377 85.7225 14.4986 85.7225 13.9716C85.7225 13.5407 85.8435 13.1596 86.0854 12.8281C86.3307 12.4967 86.6638 12.2365 87.0847 12.0476C87.5089 11.8587 87.9895 11.7642 88.5265 11.7642C89.2821 11.7642 89.8754 11.9299 90.3063 12.2614C90.7405 12.5928 91.0487 13.0303 91.231 13.5739ZM93.1364 19.5V11.8636H94.3097V19.5H93.1364ZM93.733 10.5909C93.5043 10.5909 93.3071 10.513 93.1413 10.3572C92.9789 10.2015 92.8977 10.0142 92.8977 9.79545C92.8977 9.5767 92.9789 9.38944 93.1413 9.23366C93.3071 9.07789 93.5043 9 93.733 9C93.9616 9 94.1572 9.07789 94.3196 9.23366C94.4853 9.38944 94.5682 9.5767 94.5682 9.79545C94.5682 10.0142 94.4853 10.2015 94.3196 10.3572C94.1572 10.513 93.9616 10.5909 93.733 10.5909ZM99.5609 19.6591C98.8715 19.6591 98.2666 19.495 97.7463 19.1669C97.2292 18.8388 96.8249 18.3797 96.5332 17.7898C96.2449 17.1998 96.1007 16.5104 96.1007 15.7216C96.1007 14.9261 96.2449 14.2318 96.5332 13.6385C96.8249 13.0452 97.2292 12.5845 97.7463 12.2564C98.2666 11.9283 98.8715 11.7642 99.5609 11.7642C100.25 11.7642 100.854 11.9283 101.371 12.2564C101.891 12.5845 102.295 13.0452 102.584 13.6385C102.875 14.2318 103.021 14.9261 103.021 15.7216C103.021 16.5104 102.875 17.1998 102.584 17.7898C102.295 18.3797 101.891 18.8388 101.371 19.1669C100.854 19.495 100.25 19.6591 99.5609 19.6591ZM99.5609 18.6051C100.085 18.6051 100.515 18.4709 100.854 18.2024C101.192 17.9339 101.442 17.581 101.604 17.1435C101.767 16.706 101.848 16.232 101.848 15.7216C101.848 15.2112 101.767 14.7356 101.604 14.2947C101.442 13.8539 101.192 13.4976 100.854 13.2259C100.515 12.9541 100.085 12.8182 99.5609 12.8182C99.0372 12.8182 98.6064 12.9541 98.2683 13.2259C97.9302 13.4976 97.68 13.8539 97.5176 14.2947C97.3552 14.7356 97.274 15.2112 97.274 15.7216C97.274 16.232 97.3552 16.706 97.5176 17.1435C97.68 17.581 97.9302 17.9339 98.2683 18.2024C98.6064 18.4709 99.0372 18.6051 99.5609 18.6051ZM105.985 14.9062V19.5H104.812V11.8636H105.946V13.0568H106.045C106.224 12.669 106.496 12.3575 106.86 12.1222C107.225 11.8835 107.696 11.7642 108.272 11.7642C108.789 11.7642 109.242 11.8703 109.63 12.0824C110.017 12.2912 110.319 12.6094 110.534 13.0369C110.75 13.4612 110.858 13.9981 110.858 14.6477V19.5H109.684V14.7273C109.684 14.1274 109.529 13.66 109.217 13.3253C108.905 12.9872 108.478 12.8182 107.934 12.8182C107.56 12.8182 107.225 12.8994 106.93 13.0618C106.638 13.2242 106.408 13.4612 106.239 13.7727C106.07 14.0843 105.985 14.4621 105.985 14.9062ZM118.411 13.5739L117.357 13.8722C117.29 13.6965 117.193 13.5258 117.063 13.3601C116.937 13.1911 116.765 13.0518 116.546 12.9425C116.328 12.8331 116.048 12.7784 115.706 12.7784C115.239 12.7784 114.849 12.8861 114.538 13.1016C114.23 13.3137 114.075 13.5838 114.075 13.9119C114.075 14.2036 114.182 14.4339 114.394 14.603C114.606 14.772 114.937 14.9129 115.388 15.0256L116.521 15.304C117.204 15.4697 117.713 15.7232 118.048 16.0646C118.383 16.4027 118.55 16.8385 118.55 17.3722C118.55 17.8097 118.424 18.2008 118.172 18.5455C117.923 18.8902 117.575 19.1619 117.128 19.3608C116.681 19.5597 116.16 19.6591 115.567 19.6591C114.788 19.6591 114.143 19.4901 113.633 19.152C113.123 18.8139 112.799 18.3201 112.664 17.6705L113.777 17.392C113.883 17.803 114.084 18.1113 114.379 18.3168C114.677 18.5223 115.066 18.625 115.547 18.625C116.094 18.625 116.528 18.509 116.85 18.277C117.174 18.0417 117.337 17.7599 117.337 17.4318C117.337 17.1667 117.244 16.9446 117.058 16.7656C116.873 16.5833 116.588 16.4474 116.203 16.358L114.931 16.0597C114.231 15.8939 113.718 15.6371 113.389 15.2891C113.065 14.9377 112.902 14.4986 112.902 13.9716C112.902 13.5407 113.023 13.1596 113.265 12.8281C113.51 12.4967 113.843 12.2365 114.264 12.0476C114.689 11.8587 115.169 11.7642 115.706 11.7642C116.462 11.7642 117.055 11.9299 117.486 12.2614C117.92 12.5928 118.228 13.0303 118.411 13.5739Z" fill="#98A5B3"/>
<path d="M235.9 22.8L230.3 17.2C229.8 17.6 229.225 17.9167 228.575 18.15C227.925 18.3833 227.233 18.5 226.5 18.5C224.683 18.5 223.146 17.8707 221.888 16.612C220.63 15.3533 220.001 13.816 220 12C220 10.1833 220.629 8.646 221.888 7.388C223.147 6.13 224.684 5.50067 226.5 5.5C228.317 5.5 229.854 6.12933 231.112 7.388C232.37 8.64667 232.999 10.184 233 12C233 12.7333 232.883 13.425 232.65 14.075C232.417 14.725 232.1 15.3 231.7 15.8L237.325 21.425C237.508 21.6083 237.6 21.8333 237.6 22.1C237.6 22.3667 237.5 22.6 237.3 22.8C237.117 22.9833 236.883 23.075 236.6 23.075C236.317 23.075 236.083 22.9833 235.9 22.8ZM226.5 16.5C227.75 16.5 228.813 16.0623 229.688 15.187C230.563 14.3117 231.001 13.2493 231 12C231 10.75 230.562 9.68733 229.687 8.812C228.812 7.93667 227.749 7.49933 226.5 7.5C225.25 7.5 224.187 7.93767 223.312 8.813C222.437 9.68833 221.999 10.7507 222 12C222 13.25 222.438 14.3127 223.313 15.188C224.188 16.0633 225.251 16.5007 226.5 16.5Z" fill="#A7A4C4"/>
<path d="M275 24.5C273.633 24.5 272.342 24.2373 271.125 23.712C269.908 23.1867 268.846 22.47 267.937 21.562C267.029 20.654 266.312 19.5917 265.787 18.375C265.262 17.1583 264.999 15.8667 265 14.5C265 13.1167 265.263 11.8207 265.788 10.612C266.313 9.40333 267.03 8.34533 267.938 7.438C268.846 6.52933 269.908 5.81267 271.124 5.288C272.34 4.76333 273.632 4.50067 275 4.5C276.383 4.5 277.679 4.76267 278.888 5.288C280.097 5.81333 281.155 6.53 282.062 7.438C282.971 8.346 283.687 9.40433 284.212 10.613C284.737 11.8217 284.999 13.1173 285 14.5V15.95C285 16.9333 284.663 17.771 283.988 18.463C283.313 19.155 282.484 19.5007 281.5 19.5C280.9 19.5 280.342 19.3667 279.825 19.1C279.308 18.8333 278.883 18.4833 278.55 18.05C278.1 18.5 277.571 18.8543 276.962 19.113C276.353 19.3717 275.699 19.5007 275 19.5C273.617 19.5 272.437 19.0123 271.462 18.037C270.487 17.0617 269.999 15.8827 270 14.5C270 13.1167 270.488 11.9373 271.463 10.962C272.438 9.98667 273.617 9.49933 275 9.5C276.383 9.5 277.563 9.98767 278.538 10.963C279.513 11.9383 280.001 13.1173 280 14.5V15.95C280 16.4333 280.15 16.8123 280.45 17.087C280.75 17.3617 281.1 17.4993 281.5 17.5C281.9 17.5 282.25 17.3623 282.55 17.087C282.85 16.8117 283 16.4327 283 15.95V14.5C283 12.3167 282.212 10.4373 280.637 8.862C279.062 7.28667 277.183 6.49933 275 6.5C272.817 6.5 270.937 7.28767 269.362 8.863C267.787 10.4383 266.999 12.3173 267 14.5C267 16.6833 267.788 18.5627 269.363 20.138C270.938 21.7133 272.817 22.5007 275 22.5H280V24.5H275ZM275 17.5C275.833 17.5 276.542 17.2083 277.125 16.625C277.708 16.0417 278 15.3333 278 14.5C278 13.6667 277.708 12.9583 277.125 12.375C276.542 11.7917 275.833 11.5 275 11.5C274.167 11.5 273.458 11.7917 272.875 12.375C272.292 12.9583 272 13.6667 272 14.5C272 15.3333 272.292 16.0417 272.875 16.625C273.458 17.2083 274.167 17.5 275 17.5Z" fill="#A7A4C4"/>
<path d="M309 9.99955C308.11 9.99955 307.24 10.2635 306.5 10.7579C305.76 11.2524 305.183 11.9552 304.843 12.7775C304.502 13.5997 304.413 14.5045 304.587 15.3775C304.76 16.2504 305.189 17.0522 305.818 17.6815C306.447 18.3109 307.249 18.7395 308.122 18.9131C308.995 19.0867 309.9 18.9976 310.722 18.657C311.544 18.3164 312.247 17.7396 312.742 16.9996C313.236 16.2596 313.5 15.3896 313.5 14.4996C313.499 13.3065 313.024 12.1626 312.181 11.3189C311.337 10.4753 310.193 10.0008 309 9.99955ZM309 17.4996C308.407 17.4996 307.827 17.3236 307.333 16.994C306.84 16.6643 306.455 16.1958 306.228 15.6476C306.001 15.0994 305.942 14.4962 306.058 13.9143C306.173 13.3323 306.459 12.7978 306.879 12.3782C307.298 11.9587 307.833 11.673 308.415 11.5572C308.997 11.4414 309.6 11.5009 310.148 11.7279C310.696 11.955 311.165 12.3395 311.494 12.8328C311.824 13.3262 312 13.9062 312 14.4996C312 15.2952 311.684 16.0583 311.121 16.6209C310.559 17.1835 309.796 17.4996 309 17.4996ZM317.25 14.7021C317.254 14.5671 317.254 14.4321 317.25 14.2971L318.649 12.5496C318.722 12.4578 318.773 12.3501 318.797 12.2351C318.821 12.1202 318.818 12.0012 318.788 11.8877C318.558 11.0257 318.215 10.1982 317.768 9.42674C317.709 9.32579 317.628 9.23991 317.53 9.17595C317.432 9.11199 317.321 9.0717 317.205 9.0583L314.981 8.8108C314.889 8.7133 314.795 8.61955 314.7 8.52955L314.438 6.30018C314.424 6.18413 314.384 6.07284 314.319 5.97518C314.255 5.87752 314.169 5.79619 314.068 5.73768C313.296 5.29082 312.469 4.94815 311.607 4.71862C311.494 4.68843 311.375 4.68534 311.26 4.7096C311.145 4.73387 311.037 4.7848 310.945 4.8583L309.203 6.24955H308.798L307.05 4.85362C306.958 4.78027 306.851 4.72951 306.736 4.70541C306.621 4.68131 306.502 4.68455 306.388 4.71487C305.526 4.94458 304.699 5.28757 303.927 5.73487C303.826 5.79348 303.74 5.87486 303.676 5.97251C303.612 6.07017 303.572 6.1814 303.559 6.29737L303.311 8.52487C303.214 8.61799 303.12 8.71174 303.03 8.80612L300.801 9.06205C300.685 9.07556 300.573 9.11598 300.476 9.18011C300.378 9.24424 300.297 9.3303 300.238 9.43143C299.791 10.2031 299.449 11.0307 299.219 11.8924C299.189 12.0059 299.186 12.125 299.21 12.2399C299.234 12.3549 299.285 12.4626 299.359 12.5542L300.75 14.2971V14.7021L299.354 16.4496C299.281 16.5413 299.23 16.649 299.206 16.764C299.182 16.8789 299.185 16.9979 299.215 17.1114C299.445 17.9734 299.788 18.8009 300.235 19.5724C300.294 19.6733 300.375 19.7592 300.473 19.8232C300.571 19.8871 300.682 19.9274 300.798 19.9408L303.022 20.1883C303.115 20.2858 303.208 20.3796 303.303 20.4696L303.563 22.6989C303.576 22.815 303.616 22.9263 303.681 23.0239C303.745 23.1216 303.831 23.2029 303.932 23.2614C304.704 23.7083 305.531 24.051 306.393 24.2805C306.506 24.3107 306.625 24.3138 306.74 24.2895C306.855 24.2652 306.963 24.2143 307.055 24.1408L308.798 22.7496C308.933 22.7533 309.068 22.7533 309.203 22.7496L310.95 24.1483C311.042 24.2216 311.149 24.2724 311.264 24.2965C311.379 24.3206 311.498 24.3174 311.612 24.2871C312.474 24.0577 313.301 23.7147 314.073 23.2671C314.174 23.2084 314.26 23.1271 314.324 23.0294C314.388 22.9318 314.428 22.8205 314.441 22.7046L314.689 20.4808C314.786 20.3883 314.88 20.2946 314.97 20.1996L317.199 19.9371C317.315 19.9236 317.427 19.8831 317.524 19.819C317.622 19.7549 317.703 19.6688 317.762 19.5677C318.209 18.796 318.551 17.9685 318.781 17.1067C318.811 16.9932 318.814 16.8741 318.79 16.7592C318.766 16.6442 318.715 16.5365 318.641 16.4449L317.25 14.7021ZM315.741 14.0927C315.757 14.3637 315.757 14.6354 315.741 14.9064C315.729 15.092 315.788 15.2751 315.904 15.4202L317.234 17.0824C317.081 17.5675 316.886 18.0381 316.65 18.4886L314.531 18.7286C314.347 18.7491 314.176 18.8373 314.053 18.9761C313.873 19.1791 313.681 19.3713 313.478 19.5517C313.339 19.675 313.251 19.8454 313.23 20.0299L312.995 22.1467C312.544 22.3828 312.074 22.5783 311.588 22.7308L309.925 21.4005C309.792 21.2942 309.627 21.2363 309.457 21.2364H309.412C309.141 21.2524 308.869 21.2524 308.598 21.2364C308.412 21.2253 308.229 21.2834 308.084 21.3996L306.417 22.7308C305.932 22.5782 305.462 22.3827 305.011 22.1467L304.771 20.0308C304.75 19.8463 304.662 19.6759 304.523 19.5527C304.321 19.3722 304.128 19.18 303.948 18.9771C303.825 18.8382 303.654 18.75 303.47 18.7296L301.353 18.4933C301.117 18.0428 300.921 17.5722 300.769 17.0871L302.099 15.4239C302.215 15.2788 302.273 15.0957 302.262 14.9102C302.246 14.6392 302.246 14.3674 302.262 14.0964C302.273 13.9109 302.215 13.7278 302.099 13.5827L300.769 11.9167C300.921 11.4316 301.117 10.961 301.353 10.5105L303.469 10.2705C303.653 10.25 303.824 10.1618 303.947 10.023C304.127 9.82003 304.32 9.62783 304.523 9.44737C304.662 9.32404 304.75 9.15329 304.771 8.9683L305.006 6.85237C305.457 6.6163 305.927 6.42084 306.413 6.2683L308.076 7.59862C308.221 7.71478 308.404 7.77291 308.589 7.76174C308.86 7.7458 309.132 7.7458 309.403 7.76174C309.589 7.77291 309.772 7.71478 309.917 7.59862L311.583 6.2683C312.068 6.42095 312.539 6.61641 312.989 6.85237L313.229 8.9683C313.25 9.15282 313.338 9.32318 313.477 9.44643C313.68 9.62689 313.872 9.81909 314.052 10.0221C314.175 10.1609 314.346 10.2491 314.53 10.2696L316.647 10.5049C316.883 10.9553 317.079 11.4259 317.231 11.9111L315.901 13.5742C315.784 13.7206 315.725 13.9055 315.738 14.0927H315.741Z" fill="#A7A4C4"/>
<path d="M334.75 21.75H357.25V19.3333H334.75V21.75ZM334.75 15.7083H357.25V13.2917H334.75V15.7083ZM334.75 7.25V9.66667H357.25V7.25H334.75Z" fill="#A7A4C4"/>
</svg>
