<svg width="56" height="56" viewBox="0 0 56 56" fill="none" xmlns="http://www.w3.org/2000/svg">
<g filter="url(#filter0_d_623_2515)">
<rect x="4" width="48" height="48" rx="24" fill="#CFD9E5" shape-rendering="crispEdges"/>
<path fill-rule="evenodd" clip-rule="evenodd" d="M37.9993 29.0003V14.7146C37.9993 13.9568 37.6983 13.2301 37.1625 12.6943C36.6266 12.1584 35.8999 11.8574 35.1422 11.8574H23.7136C22.9558 11.8574 22.2291 12.1584 21.6933 12.6943C21.1575 13.2301 20.8564 13.9568 20.8564 14.7146V29.0003C20.8564 29.758 21.1575 30.4848 21.6933 31.0206C22.2291 31.5564 22.9558 31.8574 23.7136 31.8574H35.1422C35.8999 31.8574 36.6266 31.5564 37.1625 31.0206C37.6983 30.4848 37.9993 29.758 37.9993 29.0003Z" stroke="#8B88A8" stroke-width="1.5" stroke-linecap="round" stroke-linejoin="round"/>
<path d="M20.5781 15.3359L17.7153 16.3788C17.0034 16.6381 16.4237 17.1694 16.1036 17.856C15.7834 18.5427 15.7491 19.3283 16.0081 20.0402L20.8938 33.4645C21.0222 33.8171 21.2188 34.141 21.4723 34.4177C21.7259 34.6943 22.0315 34.9183 22.3716 35.0768C22.7118 35.2354 23.0798 35.3253 23.4547 35.3416C23.8296 35.3579 24.2041 35.3001 24.5567 35.1717L32.511 32.0317M25.1424 19.0002H32.2853M25.1424 21.8574H33.7138M25.1424 24.7145H29.4281" stroke="#8B88A8" stroke-width="1.5" stroke-linecap="round" stroke-linejoin="round"/>
</g>
<defs>
<filter id="filter0_d_623_2515" x="0" y="0" width="56" height="56" filterUnits="userSpaceOnUse" color-interpolation-filters="sRGB">
<feFlood flood-opacity="0" result="BackgroundImageFix"/>
<feColorMatrix in="SourceAlpha" type="matrix" values="0 0 0 0 0 0 0 0 0 0 0 0 0 0 0 0 0 0 127 0" result="hardAlpha"/>
<feOffset dy="4"/>
<feGaussianBlur stdDeviation="2"/>
<feComposite in2="hardAlpha" operator="out"/>
<feColorMatrix type="matrix" values="0 0 0 0 0 0 0 0 0 0 0 0 0 0 0 0 0 0 0.25 0"/>
<feBlend mode="normal" in2="BackgroundImageFix" result="effect1_dropShadow_623_2515"/>
<feBlend mode="normal" in="SourceGraphic" in2="effect1_dropShadow_623_2515" result="shape"/>
</filter>
</defs>
</svg>
